<?xml version="1.0" encoding="UTF-8" standalone="no"?>
<svg
   version="1.0"
   width="144.9151pt"
   height="215.0835pt"
   viewBox="0 0 144.9151 215.0835"
   preserveAspectRatio="xMidYMid"
   id="svg14"
   sodipodi:docname="picsvg_download.svg"
   inkscape:version="1.3.2 (091e20e, 2023-11-25, custom)"
   xmlns:inkscape="http://www.inkscape.org/namespaces/inkscape"
   xmlns:sodipodi="http://sodipodi.sourceforge.net/DTD/sodipodi-0.dtd"
   xmlns="http://www.w3.org/2000/svg"
   xmlns:svg="http://www.w3.org/2000/svg">
  <defs
     id="defs14" />
  <sodipodi:namedview
     id="namedview14"
     pagecolor="#ffffff"
     bordercolor="#000000"
     borderopacity="0.25"
     inkscape:showpageshadow="2"
     inkscape:pageopacity="0.0"
     inkscape:pagecheckerboard="0"
     inkscape:deskcolor="#d1d1d1"
     inkscape:document-units="pt"
     inkscape:zoom="1.14"
     inkscape:cx="78.947368"
     inkscape:cy="112.7193"
     inkscape:window-width="1920"
     inkscape:window-height="1111"
     inkscape:window-x="-9"
     inkscape:window-y="-9"
     inkscape:window-maximized="1"
     inkscape:current-layer="g14" />
  <g
     transform="matrix(0.05,0,0,-0.05,-81.209864,225.92545)"
     fill="#ffffff"
     stroke="none"
     id="g14"
     style="fill:#e9afaf">
    <g
       id="g15">
      <path
         d="m 2650,4484 c -85,-40 -179,-136 -262,-267 -61,-97 -48,-123 27,-54 154,142 271,153 591,54 287,-89 546,-92 799,-10 218,72 218,82 0,85 -157,2 -204,13 -465,107 -348,124 -553,150 -690,85 z"
         id="path1"
         style="fill:#f4a8ff;fill-opacity:1" />
      <path
         d="m 2600,4191 c 0,-82 157,-142 503,-193 948,-138 1271,-435 1312,-1206 13,-243 28,-238 76,28 144,788 -196,1140 -1221,1259 -332,39 -475,64 -575,101 -70,27 -95,30 -95,11 z"
         id="path2"
         style="fill:#f4a8ff;fill-opacity:1" />
      <path
         d="m 4220,4150 c -39,-23 -99,-26 -281,-17 -190,10 -241,7 -290,-19 l -59,-32 69,-1 c 38,-1 136,-20 218,-43 185,-52 267,-41 356,45 95,92 89,125 -13,67 z"
         id="path3"
         style="fill:#f4a8ff;fill-opacity:1" />
      <path
         d="m 2420,4104 c 0,-92 156,-171 485,-247 954,-219 1257,-533 1232,-1278 -8,-243 4,-271 51,-114 264,882 -18,1235 -1178,1475 -263,54 -430,99 -488,131 -96,54 -102,56 -102,33 z"
         id="path4"
         style="fill:#f4a8ff;fill-opacity:1" />
      <path
         d="m 2302,4010 c -139,-427 8,-798 559,-1410 614,-681 704,-947 448,-1318 -108,-157 -47,-121 106,63 158,189 240,318 302,475 l 44,110 -7,-105 c -12,-152 -107,-325 -303,-551 -305,-350 -319,-516 -72,-851 83,-112 96,-95 40,51 -96,252 -50,449 169,713 217,264 273,440 212,673 -13,50 -31,155 -40,235 -32,282 -160,451 -657,870 -608,513 -720,668 -769,1075 -5,43 -9,40 -32,-30 z"
         id="path5"
         style="fill:#f4a8ff;fill-opacity:1"
         sodipodi:nodetypes="cccccccccccccccc" />
      <path
         d="m 2381,4007 c -5,-277 152,-492 559,-768 104,-71 242,-182 306,-246 94,-93 145,-126 251,-162 207,-70 339,-146 448,-254 123,-123 120,-127 83,120 -98,662 -285,850 -994,1002 -368,79 -517,158 -628,333 -21,34 -24,32 -25,-25 z"
         id="path6"
         style="fill:#f4a8ff;fill-opacity:1"
         sodipodi:nodetypes="ccccccccc" />
      <path
         d="m 1960,3044 c -91,-11 -260,-65 -260,-82 0,-10 57,-13 127,-7 159,13 240,-14 388,-124 224,-167 377,-221 311,-110 -129,221 -355,349 -566,323 z"
         id="path7"
         style="fill:#f4a8ff;fill-opacity:1" />
      <path
         d="m 1800,2794 c 0,-25 18,-81 40,-124 22,-43 40,-81 40,-84 0,-20 -104,0 -169,34 -98,50 -114,36 -43,-38 170,-177 411,-219 647,-113 135,61 217,130 125,104 -282,-77 -516,2 -580,198 -26,79 -60,91 -60,23 z"
         id="path8"
         style="fill:#f4a8ff;fill-opacity:1" />
      <path
         d="m 3543,2698 c 174,-213 280,-411 318,-594 23,-110 16,-424 -11,-524 -25,-92 104,78 153,200 138,351 -5,709 -372,929 -153,91 -169,90 -88,-11 z"
         id="path9"
         style="fill:#f4a8ff;fill-opacity:1" />
      <path
         d="m 4096,2000 c 12,-159 -22,-248 -207,-543 -226,-360 -310,-587 -309,-841 l 1,-86 68,140 c 49,99 128,203 272,357 386,413 432,583 260,947 -76,162 -95,168 -85,26 z"
         id="path10"
         style="fill:#f4a8ff;fill-opacity:1" />
      <path
         d="m 2493,1967 c -22,-22 -15,-50 9,-36 12,8 48,-6 80,-29 64,-48 75,-35 27,34 -30,43 -88,58 -116,31 z"
         id="path11"
         style="fill:#f4a8ff;fill-opacity:1" />
      <path
         d="m 2844,1956 c -49,-49 -29,-84 27,-47 27,18 59,27 70,21 10,-7 19,2 19,19 0,37 -81,42 -116,7 z"
         id="path12"
         style="fill:#f4a8ff;fill-opacity:1" />
      <path
         d="m 2484,1656 -99,-84 92,-84 c 158,-144 355,-141 504,8 83,84 94,104 55,104 -13,0 -58,33 -100,73 -73,73 -76,73 -152,48 -59,-19 -89,-20 -120,-3 -61,33 -71,29 -180,-62 z m 386,-96 c -7,-11 -74,-20 -150,-20 -76,0 -143,9 -150,20 -8,13 47,20 150,20 103,0 158,-7 150,-20 z"
         id="path13"
         style="fill:#f4a8ff;fill-opacity:1" />
      <path
         d="m 3502,875 c -83,-84 -94,-138 -60,-284 15,-67 27,-181 26,-255 -1,-147 9,-154 62,-43 30,62 33,108 22,305 -11,185 -7,243 16,287 40,74 11,69 -66,-10 z"
         id="path14"
         style="fill:#f4a8ff;fill-opacity:1" />
    </g>
  </g>
</svg>
